<?xml version="1.0" encoding="UTF-8"?>
<!DOCTYPE svg PUBLIC "-//W3C//DTD SVG 1.1//EN" "http://www.w3.org/Graphics/SVG/1.1/DTD/svg11.dtd">
<svg xmlns="http://www.w3.org/2000/svg" version="1.1" width="225px" height="225px" style="shape-rendering:geometricPrecision; text-rendering:geometricPrecision; image-rendering:optimizeQuality; fill-rule:evenodd; clip-rule:evenodd" xmlns:xlink="http://www.w3.org/1999/xlink">
<g><path style="opacity:1" fill="#fefefe" d="M -0.5,-0.5 C 74.5,-0.5 149.5,-0.5 224.5,-0.5C 224.5,74.5 224.5,149.5 224.5,224.5C 149.5,224.5 74.5,224.5 -0.5,224.5C -0.5,149.5 -0.5,74.5 -0.5,-0.5 Z"/></g>
<g><path style="opacity:1" fill="#97d1f4" d="M 103.5,26.5 C 146.6,25.6192 176.433,44.9525 193,84.5C 203.113,123.157 192.947,155.323 162.5,181C 136.542,197.685 108.876,201.019 79.5,191C 45.7372,175.326 28.0705,148.826 26.5,111.5C 27.3098,88.0686 35.6431,67.9019 51.5,51C 66.101,37.2012 83.4343,29.0346 103.5,26.5 Z"/></g>
<g><path style="opacity:1" fill="#1fb6f1" d="M 118.5,40.5 C 117.327,42.3405 117.327,44.1739 118.5,46C 118.22,47.395 117.553,48.5617 116.5,49.5C 113.34,51.0267 110.007,51.6933 106.5,51.5C 106.027,50.0937 105.027,49.427 103.5,49.5C 102.196,42.0669 105.196,38.0669 112.5,37.5C 115.102,37.4672 117.102,38.4672 118.5,40.5 Z"/></g>
<g><path style="opacity:1" fill="#edf8f9" d="M 109.5,41.5 C 114.328,41.3852 115.661,43.5519 113.5,48C 111.888,48.7203 110.388,48.5536 109,47.5C 108.51,45.4546 108.677,43.4546 109.5,41.5 Z"/></g>
<g><path style="opacity:1" fill="#3387cb" d="M 118.5,40.5 C 119.906,40.9731 120.573,41.9731 120.5,43.5C 121.612,48.5358 119.945,52.2025 115.5,54.5C 114.516,57.4281 114.183,60.4281 114.5,63.5C 120.026,63.1786 125.36,63.5119 130.5,64.5C 124.833,64.5 119.167,64.5 113.5,64.5C 113.5,61.1667 113.5,57.8333 113.5,54.5C 112.5,54.5 111.5,54.5 110.5,54.5C 110.5,57.8333 110.5,61.1667 110.5,64.5C 104.833,64.5 99.1667,64.5 93.5,64.5C 98.6405,63.5119 103.974,63.1786 109.5,63.5C 110.231,58.9275 109.231,54.9275 106.5,51.5C 110.007,51.6933 113.34,51.0267 116.5,49.5C 117.553,48.5617 118.22,47.395 118.5,46C 117.327,44.1739 117.327,42.3405 118.5,40.5 Z"/></g>
<g><path style="opacity:1" fill="#023e9d" d="M 130.5,64.5 C 130.833,64.5 131.167,64.5 131.5,64.5C 118.167,65.8333 104.833,65.8333 91.5,64.5C 92.1667,64.5 92.8333,64.5 93.5,64.5C 99.1667,64.5 104.833,64.5 110.5,64.5C 110.5,61.1667 110.5,57.8333 110.5,54.5C 111.5,54.5 112.5,54.5 113.5,54.5C 113.5,57.8333 113.5,61.1667 113.5,64.5C 119.167,64.5 124.833,64.5 130.5,64.5 Z"/></g>
<g><path style="opacity:1" fill="#1ca9e2" d="M 151.5,86.5 C 156.323,86.3272 158.323,88.6606 157.5,93.5C 159.099,93.2322 160.432,93.5655 161.5,94.5C 160.178,94.33 159.011,94.6634 158,95.5C 157.505,97.4727 157.338,99.4727 157.5,101.5C 156.85,103.435 156.517,105.435 156.5,107.5C 154.833,107.5 153.167,107.5 151.5,107.5C 151.5,100.5 151.5,93.5 151.5,86.5 Z"/></g>
<g><path style="opacity:1" fill="#d68f50" d="M 161.5,94.5 C 164.675,99.1421 163.342,101.475 157.5,101.5C 157.338,99.4727 157.505,97.4727 158,95.5C 159.011,94.6634 160.178,94.33 161.5,94.5 Z"/></g>
<g><path style="opacity:1" fill="#64b7ed" d="M 103.5,49.5 C 105.027,49.427 106.027,50.0937 106.5,51.5C 109.231,54.9275 110.231,58.9275 109.5,63.5C 103.974,63.1786 98.6405,63.5119 93.5,64.5C 92.8333,64.5 92.1667,64.5 91.5,64.5C 81.4722,67.0283 75.3056,73.3616 73,83.5C 72.5007,88.4889 72.3341,93.4889 72.5,98.5C 70.8333,98.5 69.1667,98.5 67.5,98.5C 67.5,101.5 67.5,104.5 67.5,107.5C 69.1667,107.5 70.8333,107.5 72.5,107.5C 75.9987,122.615 85.6654,129.282 101.5,127.5C 101.5,130.167 101.5,132.833 101.5,135.5C 97.8183,135.335 94.1516,135.501 90.5,136C 88.4773,138.954 86.1439,141.454 83.5,143.5C 83.1667,143.5 82.8333,143.5 82.5,143.5C 79.1379,143.07 76.3046,144.07 74,146.5C 73.5003,153.826 73.3337,161.159 73.5,168.5C 72.6909,166.708 72.1909,164.708 72,162.5C 52.4276,145.594 44.761,124.261 49,98.5C 54.2316,78.625 65.7316,63.7916 83.5,54C 89.9522,51.5536 96.6189,50.0536 103.5,49.5 Z"/></g>
<g><path style="opacity:1" fill="#d78a48" d="M 63.5,94.5 C 64.4959,94.4142 65.3292,94.7476 66,95.5C 66.4955,97.4727 66.6621,99.4727 66.5,101.5C 62.1667,101.833 60.1667,99.8333 60.5,95.5C 61.791,95.7373 62.791,95.404 63.5,94.5 Z"/></g>
<g><path style="opacity:1" fill="#65b7ed" d="M 120.5,43.5 C 121.163,45.0419 121.83,46.7086 122.5,48.5C 141.937,52.7848 157.104,63.1182 168,79.5C 178.331,99.2864 179.164,119.453 170.5,140C 167.265,144.238 164.431,148.738 162,153.5C 157.605,156.732 153.772,160.398 150.5,164.5C 150.666,158.491 150.499,152.491 150,146.5C 147.804,143.875 144.97,142.875 141.5,143.5C 140.5,143.5 139.5,143.5 138.5,143.5C 136.833,139.833 134.167,137.167 130.5,135.5C 127.721,135.721 125.054,135.388 122.5,134.5C 122.5,132.167 122.5,129.833 122.5,127.5C 138.084,128.908 147.751,122.242 151.5,107.5C 153.167,107.5 154.833,107.5 156.5,107.5C 156.517,105.435 156.85,103.435 157.5,101.5C 163.342,101.475 164.675,99.1421 161.5,94.5C 160.432,93.5655 159.099,93.2322 157.5,93.5C 158.323,88.6606 156.323,86.3272 151.5,86.5C 149.947,74.4147 143.28,67.0814 131.5,64.5C 131.167,64.5 130.833,64.5 130.5,64.5C 125.36,63.5119 120.026,63.1786 114.5,63.5C 114.183,60.4281 114.516,57.4281 115.5,54.5C 119.945,52.2025 121.612,48.5358 120.5,43.5 Z"/></g>
<g><path style="opacity:1" fill="#1b78c3" d="M 72.5,98.5 C 72.5,101.5 72.5,104.5 72.5,107.5C 70.8333,107.5 69.1667,107.5 67.5,107.5C 67.5,104.5 67.5,101.5 67.5,98.5C 69.1667,98.5 70.8333,98.5 72.5,98.5 Z"/></g>
<g><path style="opacity:1" fill="#1956a5" d="M 91.5,64.5 C 104.833,65.8333 118.167,65.8333 131.5,64.5C 143.28,67.0814 149.947,74.4147 151.5,86.5C 151.5,93.5 151.5,100.5 151.5,107.5C 147.751,122.242 138.084,128.908 122.5,127.5C 115.833,127.5 109.167,127.5 102.5,127.5C 102.5,129.833 102.5,132.167 102.5,134.5C 109.167,134.5 115.833,134.5 122.5,134.5C 115.687,135.491 108.687,135.825 101.5,135.5C 101.5,132.833 101.5,130.167 101.5,127.5C 85.6654,129.282 75.9987,122.615 72.5,107.5C 72.5,104.5 72.5,101.5 72.5,98.5C 72.3341,93.4889 72.5007,88.4889 73,83.5C 75.3056,73.3616 81.4722,67.0283 91.5,64.5 Z"/></g>
<g><path style="opacity:1" fill="#98cef0" d="M 145.5,76.5 C 146.41,78.0188 147.243,79.6854 148,81.5C 148.667,91.5 148.667,101.5 148,111.5C 145.321,118.845 140.155,123.345 132.5,125C 118.167,125.667 103.833,125.667 89.5,125C 84.7902,123.45 81.1235,120.617 78.5,116.5C 80.7802,117.64 83.1136,118.807 85.5,120C 100.167,120.667 114.833,120.667 129.5,120C 131.32,119.8 132.653,118.966 133.5,117.5C 133.5,116.833 133.833,116.5 134.5,116.5C 135.251,117.573 136.251,117.74 137.5,117C 141.928,113.908 144.761,109.741 146,104.5C 146.687,95.1441 146.521,85.8108 145.5,76.5 Z"/></g>
<g><path style="opacity:1" fill="#f1f6f7" d="M 145.5,76.5 C 146.521,85.8108 146.687,95.1441 146,104.5C 144.761,109.741 141.928,113.908 137.5,117C 136.251,117.74 135.251,117.573 134.5,116.5C 136.167,115.5 137.5,114.167 138.5,112.5C 139.268,111.737 139.768,110.737 140,109.5C 140.667,101.5 140.667,93.5 140,85.5C 139.487,84.4734 138.987,83.4734 138.5,82.5C 137.229,80.0661 135.229,78.5661 132.5,78C 118.073,77.0349 103.74,77.3682 89.5,79C 87.0833,80.6626 85.25,82.8293 84,85.5C 83.3333,93.1667 83.3333,100.833 84,108.5C 84.2784,109.416 84.7784,110.082 85.5,110.5C 86.6836,113.849 89.017,116.015 92.5,117C 106.163,117.5 119.829,117.667 133.5,117.5C 132.653,118.966 131.32,119.8 129.5,120C 114.833,120.667 100.167,120.667 85.5,120C 83.1136,118.807 80.7802,117.64 78.5,116.5C 77.3466,114.193 76.1799,111.86 75,109.5C 74.3333,101.167 74.3333,92.8333 75,84.5C 76.6475,75.5207 81.8142,69.6874 90.5,67C 104.5,66.3333 118.5,66.3333 132.5,67C 138.136,68.4812 142.47,71.6479 145.5,76.5 Z"/></g>
<g><path style="opacity:1" fill="#1657a6" d="M 138.5,112.5 C 137.5,114.167 136.167,115.5 134.5,116.5C 133.833,116.5 133.5,116.833 133.5,117.5C 119.829,117.667 106.163,117.5 92.5,117C 89.017,116.015 86.6836,113.849 85.5,110.5C 86.9311,111.082 88.2644,111.915 89.5,113C 100.848,113.256 112.182,113.756 123.5,114.5C 127.446,114.522 130.78,113.188 133.5,110.5C 134.91,111.828 136.076,111.495 137,109.5C 137.232,110.737 137.732,111.737 138.5,112.5 Z"/></g>
<g><path style="opacity:1" fill="#074ba2" d="M 138.5,82.5 C 138.987,83.4734 139.487,84.4734 140,85.5C 140.667,93.5 140.667,101.5 140,109.5C 139.768,110.737 139.268,111.737 138.5,112.5C 137.732,111.737 137.232,110.737 137,109.5C 136.076,111.495 134.91,111.828 133.5,110.5C 135.067,109.319 135.901,107.653 136,105.5C 135.861,97.4347 136.695,89.768 138.5,82.5 Z"/></g>
<g><path style="opacity:1" fill="#1c7ac3" d="M 138.5,82.5 C 136.695,89.768 135.861,97.4347 136,105.5C 135.901,107.653 135.067,109.319 133.5,110.5C 130.78,113.188 127.446,114.522 123.5,114.5C 112.182,113.756 100.848,113.256 89.5,113C 88.2644,111.915 86.9311,111.082 85.5,110.5C 84.7784,110.082 84.2784,109.416 84,108.5C 83.3333,100.833 83.3333,93.1667 84,85.5C 85.25,82.8293 87.0833,80.6626 89.5,79C 103.74,77.3682 118.073,77.0349 132.5,78C 135.229,78.5661 137.229,80.0661 138.5,82.5 Z"/></g>
<g><path style="opacity:1" fill="#092c80" d="M 104.5,105.5 C 106.695,107.179 109.195,108.179 112,108.5C 114.617,108.873 116.45,107.873 117.5,105.5C 118.282,107.329 117.616,108.829 115.5,110C 112.833,110.667 110.167,110.667 107.5,110C 105.859,108.871 104.859,107.371 104.5,105.5 Z"/></g>
<g><path style="opacity:1" fill="#ebedef" d="M 101.5,86.5 C 104.716,91.9423 104.05,96.7756 99.5,101C 93.2733,101.116 90.2733,97.9498 90.5,91.5C 92.5265,86.3212 96.1931,84.6545 101.5,86.5 Z"/></g>
<g><path style="opacity:1" fill="#5d2734" d="M 96.5,89.5 C 97.8221,89.33 98.9887,89.6634 100,90.5C 100.758,92.7695 100.591,94.9361 99.5,97C 97.8876,97.7203 96.3876,97.5536 95,96.5C 95.4387,94.2413 95.9387,91.908 96.5,89.5 Z"/></g>
<g><path style="opacity:1" fill="#e9ecec" d="M 124.5,85.5 C 131.835,86.5055 134.335,90.5055 132,97.5C 125.33,103.752 121.164,102.252 119.5,93C 119.831,89.5199 121.498,87.0199 124.5,85.5 Z"/></g>
<g><path style="opacity:1" fill="#682c3a" d="M 124.5,89.5 C 126.144,89.2865 127.644,89.6198 129,90.5C 129.758,92.7695 129.591,94.9361 128.5,97C 126.888,97.7203 125.388,97.5536 124,96.5C 123.297,94.0709 123.463,91.7375 124.5,89.5 Z"/></g>
<g><path style="opacity:1" fill="#deced0" d="M 124.5,91.5 C 126.337,91.6395 126.67,92.3061 125.5,93.5C 124.702,93.0431 124.369,92.3764 124.5,91.5 Z"/></g>
<g><path style="opacity:1" fill="#1d5079" d="M 101.5,86.5 C 96.1931,84.6545 92.5265,86.3212 90.5,91.5C 90.9863,89.1933 90.9863,87.0266 90.5,85C 93.8333,84.3333 97.1667,84.3333 100.5,85C 101.056,85.3826 101.389,85.8826 101.5,86.5 Z"/></g>
<g><path style="opacity:1" fill="#063189" d="M 122.5,127.5 C 122.5,129.833 122.5,132.167 122.5,134.5C 115.833,134.5 109.167,134.5 102.5,134.5C 102.5,132.167 102.5,129.833 102.5,127.5C 109.167,127.5 115.833,127.5 122.5,127.5 Z"/></g>
<g><path style="opacity:1" fill="#06b5f5" d="M 122.5,134.5 C 125.054,135.388 127.721,135.721 130.5,135.5C 131.092,138.127 131.425,140.794 131.5,143.5C 130.844,142.722 130.011,142.056 129,141.5C 128.5,141.833 128,142.167 127.5,142.5C 128.617,143.949 129.284,145.616 129.5,147.5C 129.247,149.858 128.914,152.192 128.5,154.5C 125.203,154.671 124.869,154.005 127.5,152.5C 125.665,151.808 123.832,152.142 122,153.5C 121.812,151.939 122.645,151.272 124.5,151.5C 124.5,150.5 124.5,149.5 124.5,148.5C 125.552,148.649 126.552,148.483 127.5,148C 116.934,145.786 106.267,145.12 95.5,146C 92.9648,146.928 91.9648,148.762 92.5,151.5C 101.506,151.334 110.506,151.5 119.5,152C 111.5,152.333 103.5,152.667 95.5,153C 103.677,153.171 111.677,153.671 119.5,154.5C 111.5,154.5 103.5,154.5 95.5,154.5C 95.5,155.5 95.5,156.5 95.5,157.5C 103.5,157.5 111.5,157.5 119.5,157.5C 114.842,157.992 110.342,159.325 106,161.5C 104.78,160.612 103.447,159.945 102,159.5C 96.7141,161.572 93.0475,159.905 91,154.5C 90.2888,156.367 90.7888,157.867 92.5,159C 91.991,161.693 90.991,164.193 89.5,166.5C 92.439,166.772 95.439,166.772 98.5,166.5C 99.1667,166.167 99.8333,165.833 100.5,165.5C 98.7174,161.969 99.7174,160.469 103.5,161C 102.199,162.616 102.199,164.116 103.5,165.5C 103.369,166.239 103.536,166.906 104,167.5C 105.356,166.62 106.856,166.286 108.5,166.5C 108.215,164.712 108.548,163.045 109.5,161.5C 110.466,163.396 110.799,165.396 110.5,167.5C 113.518,167.335 116.518,167.502 119.5,168C 117.779,168.739 116.113,169.573 114.5,170.5C 114.957,171.298 115.624,171.631 116.5,171.5C 107.244,178.324 96.911,180.324 85.5,177.5C 85.5,177.167 85.5,176.833 85.5,176.5C 86.1436,165.116 85.477,154.116 83.5,143.5C 86.1439,141.454 88.4773,138.954 90.5,136C 94.1516,135.501 97.8183,135.335 101.5,135.5C 108.687,135.825 115.687,135.491 122.5,134.5 Z"/></g>
<g><path style="opacity:1" fill="#187ac5" d="M 141.5,143.5 C 144.97,142.875 147.804,143.875 150,146.5C 150.499,152.491 150.666,158.491 150.5,164.5C 150.806,167.385 150.473,170.052 149.5,172.5C 147.052,171.527 144.385,171.194 141.5,171.5C 141.5,162.167 141.5,152.833 141.5,143.5 Z"/></g>
<g><path style="opacity:1" fill="#177bc4" d="M 82.5,143.5 C 82.6664,151.507 82.4997,159.507 82,167.5C 80.9745,170.693 78.8078,172.026 75.5,171.5C 75.5,172.5 75.5,173.5 75.5,174.5C 73.9261,172.898 73.2594,170.898 73.5,168.5C 73.3337,161.159 73.5003,153.826 74,146.5C 76.3046,144.07 79.1379,143.07 82.5,143.5 Z"/></g>
<g><path style="opacity:1" fill="#177bc6" d="M 130.5,135.5 C 134.167,137.167 136.833,139.833 138.5,143.5C 138.5,154.5 138.5,165.5 138.5,176.5C 138.896,179.044 138.229,181.211 136.5,183C 119.823,183.833 103.157,183.666 86.5,182.5C 85.6906,180.929 85.3573,179.262 85.5,177.5C 96.911,180.324 107.244,178.324 116.5,171.5C 126.722,165.061 131.722,155.728 131.5,143.5C 131.425,140.794 131.092,138.127 130.5,135.5 Z"/></g>
<g><path style="opacity:1" fill="#19b7f1" d="M 131.5,143.5 C 131.722,155.728 126.722,165.061 116.5,171.5C 115.624,171.631 114.957,171.298 114.5,170.5C 116.113,169.573 117.779,168.739 119.5,168C 116.518,167.502 113.518,167.335 110.5,167.5C 110.799,165.396 110.466,163.396 109.5,161.5C 108.548,163.045 108.215,164.712 108.5,166.5C 106.856,166.286 105.356,166.62 104,167.5C 103.536,166.906 103.369,166.239 103.5,165.5C 102.199,164.116 102.199,162.616 103.5,161C 99.7174,160.469 98.7174,161.969 100.5,165.5C 99.8333,165.833 99.1667,166.167 98.5,166.5C 95.439,166.772 92.439,166.772 89.5,166.5C 90.991,164.193 91.991,161.693 92.5,159C 90.7888,157.867 90.2888,156.367 91,154.5C 93.0475,159.905 96.7141,161.572 102,159.5C 103.447,159.945 104.78,160.612 106,161.5C 110.342,159.325 114.842,157.992 119.5,157.5C 125.969,156.948 125.969,155.948 119.5,154.5C 111.677,153.671 103.677,153.171 95.5,153C 103.5,152.667 111.5,152.333 119.5,152C 110.506,151.5 101.506,151.334 92.5,151.5C 91.9648,148.762 92.9648,146.928 95.5,146C 106.267,145.12 116.934,145.786 127.5,148C 126.552,148.483 125.552,148.649 124.5,148.5C 124.5,149.5 124.5,150.5 124.5,151.5C 122.645,151.272 121.812,151.939 122,153.5C 123.832,152.142 125.665,151.808 127.5,152.5C 124.869,154.005 125.203,154.671 128.5,154.5C 128.914,152.192 129.247,149.858 129.5,147.5C 129.284,145.616 128.617,143.949 127.5,142.5C 128,142.167 128.5,141.833 129,141.5C 130.011,142.056 130.844,142.722 131.5,143.5 Z"/></g>
<g><path style="opacity:1" fill="#ddf4fa" d="M 119.5,154.5 C 125.969,155.948 125.969,156.948 119.5,157.5C 111.5,157.5 103.5,157.5 95.5,157.5C 95.5,156.5 95.5,155.5 95.5,154.5C 103.5,154.5 111.5,154.5 119.5,154.5 Z"/></g>
<g><path style="opacity:1" fill="#fbfbfb" d="M 95.5,148.5 C 104.857,148.168 114.19,148.502 123.5,149.5C 118.833,149.833 114.167,150.167 109.5,150.5C 104.449,150.493 99.7825,149.827 95.5,148.5 Z"/></g>
<g><path style="opacity:1" fill="#e9f6f8" d="M 95.5,161.5 C 96.5,161.5 97.5,161.5 98.5,161.5C 98.5,162.833 98.5,164.167 98.5,165.5C 97.5,165.5 96.5,165.5 95.5,165.5C 95.5,164.167 95.5,162.833 95.5,161.5 Z"/></g>
<g><path style="opacity:1" fill="#f2f7f8" d="M 103.5,165.5 C 103.5,164.5 103.5,163.5 103.5,162.5C 104.978,162.238 106.311,162.571 107.5,163.5C 106.68,165.111 105.346,165.778 103.5,165.5 Z"/></g>
<g><path style="opacity:1" fill="#044fa1" d="M 138.5,143.5 C 139.5,143.5 140.5,143.5 141.5,143.5C 141.5,152.833 141.5,162.167 141.5,171.5C 144.385,171.194 147.052,171.527 149.5,172.5C 149.144,173.87 148.31,174.87 147,175.5C 144.23,176.348 141.397,176.681 138.5,176.5C 138.5,165.5 138.5,154.5 138.5,143.5 Z"/></g>
<g><path style="opacity:1" fill="#0b51a3" d="M 82.5,143.5 C 82.8333,143.5 83.1667,143.5 83.5,143.5C 85.477,154.116 86.1436,165.116 85.5,176.5C 82.8127,176.664 80.146,176.497 77.5,176C 76.5842,175.722 75.9175,175.222 75.5,174.5C 75.5,173.5 75.5,172.5 75.5,171.5C 78.8078,172.026 80.9745,170.693 82,167.5C 82.4997,159.507 82.6664,151.507 82.5,143.5 Z"/></g>
</svg>
